{
  "accessors": [
    {
      "bufferView": 2,
      "componentType": 5126,
      "count": 65532,
      "max": [
        4.297431945800781,
        9.665895462036133,
        7.3762688636779785
      ],
      "min": [
        -4.501698017120361,
        -12.8449125289917,
        0.025195999071002007
      ],
      "type": "VEC3"
    },
    {
      "bufferView": 2,
      "byteOffset": 786384,
      "componentType": 5126,
      "count": 65532,
      "max": [
        0.999962568283081,
        0.9999806880950928,
        1.0
      ],
      "min": [
        -0.9997120499610901,
        -0.9999594688415527,
        -0.9999998807907104
      ],
      "type": "VEC3"
    },
    {
      "bufferView": 3,
      "componentType": 5126,
      "count": 65532,
      "max": [
        0.9998639225959778,
        0.9999483823776245,
        0.9997168183326721,
        1.0
      ],
      "min": [
        -0.9999992251396179,
        -0.9999194145202637,
        -0.9999867677688599,
        -1.0
      ],
      "type": "VEC4"
    },
    {
      "bufferView": 1,
      "componentType": 5126,
      "count": 65532,
      "max": [
        0.9999459981918335,
        0.9999489784240723
      ],
      "min": [
        0.000699999975040555,
        0.00019299999985378236
      ],
      "type": "VEC2"
    },
    {
      "bufferView": 0,
      "componentType": 5125,
      "count": 330825,
      "type": "SCALAR"
    },
    {
      "bufferView": 2,
      "byteOffset": 1572768,
      "componentType": 5126,
      "count": 65532,
      "max": [
        4.392052173614502,
        9.644261360168457,
        7.445645809173584
      ],
      "min": [
        -3.460458993911743,
        -11.92699146270752,
        1.5705000162124634
      ],
      "type": "VEC3"
    },
    {
      "bufferView": 2,
      "byteOffset": 2359152,
      "componentType": 5126,
      "count": 65532,
      "max": [
        0.9999992847442627,
        0.9999758005142212,
        0.9999995231628418
      ],
      "min": [
        -0.9932141900062561,
        -0.6323335766792297,
        -0.9999005794525146
      ],
      "type": "VEC3"
    },
    {
      "bufferView": 3,
      "byteOffset": 1048512,
      "componentType": 5126,
      "count": 65532,
      "max": [
        0.9996424913406372,
        0.9910630583763123,
        0.9999903440475464,
        1.0
      ],
      "min": [
        -0.9999200701713562,
        -0.9999270439147949,
        -0.9999327659606934,
        1.0
      ],
      "type": "VEC4"
    },
    {
      "bufferView": 1,
      "byteOffset": 524256,
      "componentType": 5126,
      "count": 65532,
      "max": [
        0.9999909996986389,
        0.999767005443573
      ],
      "min": [
        0.0034920000471174717,
        0.0
      ],
      "type": "VEC2"
    },
    {
      "bufferView": 0,
      "byteOffset": 1323300,
      "componentType": 5125,
      "count": 353445,
      "type": "SCALAR"
    },
    {
      "bufferView": 2,
      "byteOffset": 3145536,
      "componentType": 5126,
      "count": 65532,
      "max": [
        4.392887115478516,
        10.42820930480957,
        7.545890808105469
      ],
      "min": [
        -4.562110900878906,
        -10.734644889831543,
        0.6288679838180542
      ],
      "type": "VEC3"
    },
    {
      "bufferView": 2,
      "byteOffset": 3931920,
      "componentType": 5126,
      "count": 65532,
      "max": [
        0.9999994039535522,
        0.9999831914901733,
        0.9999994039535522
      ],
      "min": [
        -0.9999996423721313,
        -0.9703033566474915,
        -0.9999986886978149
      ],
      "type": "VEC3"
    },
    {
      "bufferView": 3,
      "byteOffset": 2097024,
      "componentType": 5126,
      "count": 65532,
      "max": [
        0.9999131560325623,
        0.9994750022888184,
        0.9999937415122986,
        1.0
      ],
      "min": [
        -0.9999735951423645,
        -0.9992027878761292,
        -0.999984860420227,
        1.0
      ],
      "type": "VEC4"
    },
    {
      "bufferView": 1,
      "byteOffset": 1048512,
      "componentType": 5126,
      "count": 65532,
      "max": [
        0.9999359846115112,
        0.9998970031738281
      ],
      "min": [
        0.0,
        0.0
      ],
      "type": "VEC2"
    },
    {
      "bufferView": 0,
      "byteOffset": 2737080,
      "componentType": 5125,
      "count": 331131,
      "type": "SCALAR"
    },
    {
      "bufferView": 2,
      "byteOffset": 4718304,
      "componentType": 5126,
      "count": 65532,
      "max": [
        4.392327785491943,
        9.856779098510742,
        7.479856014251709
      ],
      "min": [
        -4.467517852783203,
        -7.622861862182617,
        0.14654399454593658
      ],
      "type": "VEC3"
    },
    {
      "bufferView": 2,
      "byteOffset": 5504688,
      "componentType": 5126,
      "count": 65532,
      "max": [
        0.9999963045120239,
        0.9999853372573853,
        0.999998927116394
      ],
      "min": [
        -0.9999996423721313,
        -0.9999678134918213,
        -0.9999986886978149
      ],
      "type": "VEC3"
    },
    {
      "bufferView": 3,
      "byteOffset": 3145536,
      "componentType": 5126,
      "count": 65532,
      "max": [
        0.9999422430992126,
        0.999626874923706,
        0.9998845458030701,
        1.0
      ],
      "min": [
        -0.9999756217002869,
        -0.9999043345451355,
        -0.999997615814209,
        -1.0
      ],
      "type": "VEC4"
    },
    {
      "bufferView": 1,
      "byteOffset": 1572768,
      "componentType": 5126,
      "count": 65532,
      "max": [
        0.9999709725379944,
        1.0
      ],
      "min": [
        0.001069999998435378,
        0.0
      ],
      "type": "VEC2"
    },
    {
      "bufferView": 0,
      "byteOffset": 4061604,
      "componentType": 5125,
      "count": 286599,
      "type": "SCALAR"
    },
    {
      "bufferView": 2,
      "byteOffset": 6291072,
      "componentType": 5126,
      "count": 65532,
      "max": [
        4.3850178718566895,
        7.216609001159668,
        7.4768500328063965
      ],
      "min": [
        -4.5614399909973145,
        -13.135377883911133,
        0.14993900060653687
      ],
      "type": "VEC3"
    },
    {
      "bufferView": 2,
      "byteOffset": 7077456,
      "componentType": 5126,
      "count": 65532,
      "max": [
        1.0,
        0.9999971389770508,
        0.9999995231628418
      ],
      "min": [
        -0.999997615814209,
        -0.9998083710670471,
        -0.9999923706054688
      ],
      "type": "VEC3"
    },
    {
      "bufferView": 3,
      "byteOffset": 4194048,
      "componentType": 5126,
      "count": 65532,
      "max": [
        0.9993317723274231,
        0.999997079372406,
        0.999442994594574,
        1.0
      ],
      "min": [
        -0.9999037384986877,
        -0.9998672008514404,
        -0.9999696612358093,
        -1.0
      ],
      "type": "VEC4"
    },
    {
      "bufferView": 1,
      "byteOffset": 2097024,
      "componentType": 5126,
      "count": 65532,
      "max": [
        0.9999520182609558,
        0.9999169707298279
      ],
      "min": [
        0.0,
        0.0
      ],
      "type": "VEC2"
    },
    {
      "bufferView": 0,
      "byteOffset": 5208000,
      "componentType": 5125,
      "count": 307020,
      "type": "SCALAR"
    },
    {
      "bufferView": 2,
      "byteOffset": 7863840,
      "componentType": 5126,
      "count": 65532,
      "max": [
        4.350721836090088,
        6.288165092468262,
        7.479856014251709
      ],
      "min": [
        -5.176914215087891,
        -13.320856094360352,
        0.030856000259518623
      ],
      "type": "VEC3"
    },
    {
      "bufferView": 2,
      "byteOffset": 8650224,
      "componentType": 5126,
      "count": 65532,
      "max": [
        0.9999984502792358,
        0.9999866485595703,
        0.9999434947967529
      ],
      "min": [
        -0.9999996423721313,
        -0.9999179840087891,
        -0.9999914169311523
      ],
      "type": "VEC3"
    },
    {
      "bufferView": 3,
      "byteOffset": 5242560,
      "componentType": 5126,
      "count": 65532,
      "max": [
        0.9998844265937805,
        0.9999819993972778,
        0.9999917149543762,
        1.0
      ],
      "min": [
        -0.9999994039535522,
        -0.9992159008979797,
        -0.9999993443489075,
        -1.0
      ],
      "type": "VEC4"
    },
    {
      "bufferView": 1,
      "byteOffset": 2621280,
      "componentType": 5126,
      "count": 65532,
      "max": [
        0.9999650120735168,
        0.9999979734420776
      ],
      "min": [
        0.0,
        0.0
      ],
      "type": "VEC2"
    },
    {
      "bufferView": 0,
      "byteOffset": 6436080,
      "componentType": 5125,
      "count": 313176,
      "type": "SCALAR"
    },
    {
      "bufferView": 2,
      "byteOffset": 9436608,
      "componentType": 5126,
      "count": 65532,
      "max": [
        4.356496810913086,
        2.5481278896331787,
        5.606052875518799
      ],
      "min": [
        -4.9367899894714355,
        -13.236424446105957,
        0.01181699987500906
      ],
      "type": "VEC3"
    },
    {
      "bufferView": 2,
      "byteOffset": 10222992,
      "componentType": 5126,
      "count": 65532,
      "max": [
        0.9999980926513672,
        0.9999899864196777,
        0.999947190284729
      ],
      "min": [
        -0.9999992847442627,
        -0.9999550580978394,
        -0.9999960660934448
      ],
      "type": "VEC3"
    },
    {
      "bufferView": 3,
      "byteOffset": 6291072,
      "componentType": 5126,
      "count": 65532,
      "max": [
        0.9999855756759644,
        0.9999560117721558,
        0.9998828768730164,
        1.0
      ],
      "min": [
        -0.9999938011169434,
        -0.9997866153717041,
        -0.9999614357948303,
        -1.0
      ],
      "type": "VEC4"
    },
    {
      "bufferView": 1,
      "byteOffset": 3145536,
      "componentType": 5126,
      "count": 65532,
      "max": [
        0.9999840259552002,
        0.999987006187439
      ],
      "min": [
        0.0,
        0.0
      ],
      "type": "VEC2"
    },
    {
      "bufferView": 0,
      "byteOffset": 7688784,
      "componentType": 5125,
      "count": 289812,
      "type": "SCALAR"
    },
    {
      "bufferView": 2,
      "byteOffset": 11009376,
      "componentType": 5126,
      "count": 65532,
      "max": [
        4.3697428703308105,
        4.021726131439209,
        6.494153022766113
      ],
      "min": [
        -5.176914215087891,
        -13.374983787536621,
        0.025195999071002007
      ],
      "type": "VEC3"
    },
    {
      "bufferView": 2,
      "byteOffset": 11795760,
      "componentType": 5126,
      "count": 65532,
      "max": [
        0.9999979734420776,
        0.9999839067459106,
        0.999997615814209
      ],
      "min": [
        -0.9999996423721313,
        -0.9999955892562866,
        -0.9999889135360718
      ],
      "type": "VEC3"
    },
    {
      "bufferView": 3,
      "byteOffset": 7339584,
      "componentType": 5126,
      "count": 65532,
      "max": [
        0.9999526739120483,
        0.9999452829360962,
        0.9999818801879883,
        1.0
      ],
      "min": [
        -0.9999693632125854,
        -0.9998065233230591,
        -0.9999979138374329,
        -1.0
      ],
      "type": "VEC4"
    },
    {
      "bufferView": 1,
      "byteOffset": 3669792,
      "componentType": 5126,
      "count": 65532,
      "max": [
        0.9999799728393555,
        0.9999880194664001
      ],
      "min": [
        0.0,
        0.0
      ],
      "type": "VEC2"
    },
    {
      "bufferView": 0,
      "byteOffset": 8848032,
      "componentType": 5125,
      "count": 272892,
      "type": "SCALAR"
    },
    {
      "bufferView": 2,
      "byteOffset": 12582144,
      "componentType": 5126,
      "count": 46704,
      "max": [
        5.081422805786133,
        6.021780014038086,
        7.477357864379883
      ],
      "min": [
        -4.477062225341797,
        -13.374610900878906,
        0.17139099538326263
      ],
      "type": "VEC3"
    },
    {
      "bufferView": 2,
      "byteOffset": 13142592,
      "componentType": 5126,
      "count": 46704,
      "max": [
        0.9999668598175049,
        0.9998630285263062,
        0.9999431371688843
      ],
      "min": [
        -0.9999915361404419,
        -0.9999650716781616,
        -0.9999350309371948
      ],
      "type": "VEC3"
    },
    {
      "bufferView": 3,
      "byteOffset": 8388096,
      "componentType": 5126,
      "count": 46704,
      "max": [
        0.9998912811279297,
        0.9994660019874573,
        0.9999992251396179,
        1.0
      ],
      "min": [
        -0.9999479055404663,
        -0.9999815821647644,
        -0.9999731779098511,
        -1.0
      ],
      "type": "VEC4"
    },
    {
      "bufferView": 1,
      "byteOffset": 4194048,
      "componentType": 5126,
      "count": 46704,
      "max": [
        0.9999920129776001,
        0.999983012676239
      ],
      "min": [
        0.0,
        0.0
      ],
      "type": "VEC2"
    },
    {
      "bufferView": 0,
      "byteOffset": 9939600,
      "componentType": 5125,
      "count": 150426,
      "type": "SCALAR"
    }
  ],
  "asset": {
    "extras": {
      "author": "Lassi Kaukonen (https://sketchfab.com/thesidekick)",
      "license": "CC-BY-4.0 (http://creativecommons.org/licenses/by/4.0/)",
      "source": "https://sketchfab.com/3d-models/toyota-auris-wagon-21b2d277397049879e2756b63199ded8",
      "title": "Toyota Auris wagon"
    },
    "generator": "Sketchfab-13.31.0",
    "version": "2.0"
  },
  "bufferViews": [
    {
      "buffer": 0,
      "byteLength": 10541304,
      "name": "floatBufferViews",
      "target": 34963
    },
    {
      "buffer": 0,
      "byteLength": 4567680,
      "byteOffset": 10541304,
      "byteStride": 8,
      "name": "floatBufferViews",
      "target": 34962
    },
    {
      "buffer": 0,
      "byteLength": 13703040,
      "byteOffset": 15108984,
      "byteStride": 12,
      "name": "floatBufferViews",
      "target": 34962
    },
    {
      "buffer": 0,
      "byteLength": 9135360,
      "byteOffset": 28812024,
      "byteStride": 16,
      "name": "floatBufferViews",
      "target": 34962
    }
  ],
  "buffers": [
    {
      "byteLength": 37947384,
      "uri": "scene.bin"
    }
  ],
  "images": [
    {
      "uri": "textures/Toyota_Auris_baseColor.jpeg"
    },
    {
      "uri": "textures/Toyota_Auris_metallicRoughness.png"
    },
    {
      "uri": "textures/Toyota_Auris_normal.png"
    }
  ],
  "materials": [
    {
      "doubleSided": true,
      "emissiveFactor": [
        0.7161926588728651,
        0.7161926588728651,
        0.7161926588728651
      ],
      "emissiveTexture": {
        "index": 0
      },
      "name": "Toyota_Auris",
      "normalTexture": {
        "index": 2
      },
      "occlusionTexture": {
        "index": 1
      },
      "pbrMetallicRoughness": {
        "baseColorFactor": [
          0.2544769660250393,
          0.2544769660250393,
          0.2544769660250393,
          1.0
        ],
        "baseColorTexture": {
          "index": 0
        },
        "metallicFactor": 0.17523862929867975,
        "metallicRoughnessTexture": {
          "index": 1
        },
        "roughnessFactor": 0.3520010727651741
      }
    }
  ],
  "meshes": [
    {
      "name": "Object_0",
      "primitives": [
        {
          "attributes": {
            "NORMAL": 1,
            "POSITION": 0,
            "TANGENT": 2,
            "TEXCOORD_0": 3
          },
          "indices": 4,
          "material": 0,
          "mode": 4
        }
      ]
    },
    {
      "name": "Object_1",
      "primitives": [
        {
          "attributes": {
            "NORMAL": 6,
            "POSITION": 5,
            "TANGENT": 7,
            "TEXCOORD_0": 8
          },
          "indices": 9,
          "material": 0,
          "mode": 4
        }
      ]
    },
    {
      "name": "Object_2",
      "primitives": [
        {
          "attributes": {
            "NORMAL": 11,
            "POSITION": 10,
            "TANGENT": 12,
            "TEXCOORD_0": 13
          },
          "indices": 14,
          "material": 0,
          "mode": 4
        }
      ]
    },
    {
      "name": "Object_3",
      "primitives": [
        {
          "attributes": {
            "NORMAL": 16,
            "POSITION": 15,
            "TANGENT": 17,
            "TEXCOORD_0": 18
          },
          "indices": 19,
          "material": 0,
          "mode": 4
        }
      ]
    },
    {
      "name": "Object_4",
      "primitives": [
        {
          "attributes": {
            "NORMAL": 21,
            "POSITION": 20,
            "TANGENT": 22,
            "TEXCOORD_0": 23
          },
          "indices": 24,
          "material": 0,
          "mode": 4
        }
      ]
    },
    {
      "name": "Object_5",
      "primitives": [
        {
          "attributes": {
            "NORMAL": 26,
            "POSITION": 25,
            "TANGENT": 27,
            "TEXCOORD_0": 28
          },
          "indices": 29,
          "material": 0,
          "mode": 4
        }
      ]
    },
    {
      "name": "Object_6",
      "primitives": [
        {
          "attributes": {
            "NORMAL": 31,
            "POSITION": 30,
            "TANGENT": 32,
            "TEXCOORD_0": 33
          },
          "indices": 34,
          "material": 0,
          "mode": 4
        }
      ]
    },
    {
      "name": "Object_7",
      "primitives": [
        {
          "attributes": {
            "NORMAL": 36,
            "POSITION": 35,
            "TANGENT": 37,
            "TEXCOORD_0": 38
          },
          "indices": 39,
          "material": 0,
          "mode": 4
        }
      ]
    },
    {
      "name": "Object_8",
      "primitives": [
        {
          "attributes": {
            "NORMAL": 41,
            "POSITION": 40,
            "TANGENT": 42,
            "TEXCOORD_0": 43
          },
          "indices": 44,
          "material": 0,
          "mode": 4
        }
      ]
    }
  ],
  "nodes": [
    {
      "children": [
        1
      ],
      "matrix": [
        1.0,
        0.0,
        0.0,
        0.0,
        0.0,
        2.220446049250313e-16,
        -1.0,
        0.0,
        0.0,
        1.0,
        2.220446049250313e-16,
        0.0,
        0.0,
        0.0,
        0.0,
        1.0
      ],
      "name": "Sketchfab_model"
    },
    {
      "children": [
        2,
        3,
        4,
        5,
        6,
        7,
        8,
        9,
        10
      ],
      "name": "Toyota_Auris_SF.obj.cleaner.materialmerger.gles"
    },
    {
      "mesh": 0,
      "name": "Object_2"
    },
    {
      "mesh": 1,
      "name": "Object_3"
    },
    {
      "mesh": 2,
      "name": "Object_4"
    },
    {
      "mesh": 3,
      "name": "Object_5"
    },
    {
      "mesh": 4,
      "name": "Object_6"
    },
    {
      "mesh": 5,
      "name": "Object_7"
    },
    {
      "mesh": 6,
      "name": "Object_8"
    },
    {
      "mesh": 7,
      "name": "Object_9"
    },
    {
      "mesh": 8,
      "name": "Object_10"
    }
  ],
  "samplers": [
    {
      "magFilter": 9729,
      "minFilter": 9987,
      "wrapS": 10497,
      "wrapT": 10497
    }
  ],
  "scene": 0,
  "scenes": [
    {
      "name": "Sketchfab_Scene",
      "nodes": [
        0
      ]
    }
  ],
  "textures": [
    {
      "sampler": 0,
      "source": 0
    },
    {
      "sampler": 0,
      "source": 1
    },
    {
      "sampler": 0,
      "source": 2
    }
  ]
}
