{
  "accessors": [
    {
      "bufferView": 2,
      "componentType": 5126,
      "count": 729,
      "max": [
        1.0365618467330933,
        1.0,
        0.9999999403953552
      ],
      "min": [
        -1.6935352087020874,
        -0.7864280343055725,
        -0.9999999403953552
      ],
      "type": "VEC3"
    },
    {
      "bufferView": 2,
      "byteOffset": 8748,
      "componentType": 5126,
      "count": 729,
      "max": [
        0.9997988939285278,
        0.9999997615814209,
        0.9999794960021973
      ],
      "min": [
        -0.9999980926513672,
        -0.9999853372573853,
        -0.9999791383743286
      ],
      "type": "VEC3"
    },
    {
      "bufferView": 1,
      "componentType": 5126,
      "count": 729,
      "max": [
        1.0,
        0.47238200902938843
      ],
      "min": [
        0.0,
        0.0
      ],
      "type": "VEC2"
    },
    {
      "bufferView": 0,
      "componentType": 5125,
      "count": 3840,
      "type": "SCALAR"
    },
    {
      "bufferView": 2,
      "byteOffset": 17496,
      "componentType": 5126,
      "count": 63,
      "max": [
        0.06437563896179199,
        0.11800004541873932,
        0.11800004541873932
      ],
      "min": [
        -0.06437563896179199,
        -0.11800004541873932,
        -0.11800004541873932
      ],
      "type": "VEC3"
    },
    {
      "bufferView": 2,
      "byteOffset": 18252,
      "componentType": 5126,
      "count": 63,
      "max": [
        0.9800878763198853,
        0.999988317489624,
        1.0
      ],
      "min": [
        -0.9800878763198853,
        -0.999988317489624,
        -1.0
      ],
      "type": "VEC3"
    },
    {
      "bufferView": 1,
      "byteOffset": 5832,
      "componentType": 5126,
      "count": 63,
      "max": [
        1.0,
        0.47238200902938843
      ],
      "min": [
        0.0,
        0.0
      ],
      "type": "VEC2"
    },
    {
      "bufferView": 0,
      "byteOffset": 15360,
      "componentType": 5125,
      "count": 240,
      "type": "SCALAR"
    },
    {
      "bufferView": 2,
      "byteOffset": 19008,
      "componentType": 5126,
      "count": 364,
      "max": [
        0.057495176792144775,
        0.12850895524024963,
        0.14027518033981323
      ],
      "min": [
        -3.015096664428711,
        -0.11399630457162857,
        -0.40480366349220276
      ],
      "type": "VEC3"
    },
    {
      "bufferView": 2,
      "byteOffset": 23376,
      "componentType": 5126,
      "count": 364,
      "max": [
        0.6878712773323059,
        0.9999749660491943,
        0.9998500347137451
      ],
      "min": [
        -0.9972801208496094,
        -0.9999876022338867,
        -0.999814510345459
      ],
      "type": "VEC3"
    },
    {
      "bufferView": 1,
      "byteOffset": 6336,
      "componentType": 5126,
      "count": 364,
      "max": [
        1.0,
        1.0
      ],
      "min": [
        0.0,
        0.0
      ],
      "type": "VEC2"
    },
    {
      "bufferView": 0,
      "byteOffset": 16320,
      "componentType": 5125,
      "count": 1974,
      "type": "SCALAR"
    },
    {
      "bufferView": 2,
      "byteOffset": 27744,
      "componentType": 5126,
      "count": 126,
      "max": [
        0.05478549003601074,
        0.5496385097503662,
        0.4683414697647095
      ],
      "min": [
        -0.454033762216568,
        -0.096127450466156,
        -0.1095074787735939
      ],
      "type": "VEC3"
    },
    {
      "bufferView": 2,
      "byteOffset": 29256,
      "componentType": 5126,
      "count": 126,
      "max": [
        0.9800878763198853,
        0.999988317489624,
        1.0
      ],
      "min": [
        -0.9800878763198853,
        -0.999988317489624,
        -1.0
      ],
      "type": "VEC3"
    },
    {
      "bufferView": 1,
      "byteOffset": 9248,
      "componentType": 5126,
      "count": 126,
      "max": [
        1.0,
        0.47238200902938843
      ],
      "min": [
        0.0,
        0.0
      ],
      "type": "VEC2"
    },
    {
      "bufferView": 0,
      "byteOffset": 24216,
      "componentType": 5125,
      "count": 480,
      "type": "SCALAR"
    },
    {
      "bufferView": 2,
      "byteOffset": 30768,
      "componentType": 5126,
      "count": 828,
      "max": [
        0.20592829585075378,
        0.2120937705039978,
        1.3169806003570557
      ],
      "min": [
        -0.20949554443359375,
        -0.7941630482673645,
        -0.24638420343399048
      ],
      "type": "VEC3"
    },
    {
      "bufferView": 2,
      "byteOffset": 40704,
      "componentType": 5126,
      "count": 828,
      "max": [
        0.9997773170471191,
        0.9845194816589355,
        0.9974290132522583
      ],
      "min": [
        -0.9980424642562866,
        -0.9991567134857178,
        -0.9908364415168762
      ],
      "type": "VEC3"
    },
    {
      "bufferView": 1,
      "byteOffset": 10256,
      "componentType": 5126,
      "count": 828,
      "max": [
        1.0,
        0.47238200902938843
      ],
      "min": [
        0.0,
        0.0
      ],
      "type": "VEC2"
    },
    {
      "bufferView": 0,
      "byteOffset": 26136,
      "componentType": 5125,
      "count": 3156,
      "type": "SCALAR"
    },
    {
      "bufferView": 2,
      "byteOffset": 50640,
      "componentType": 5126,
      "count": 410,
      "max": [
        0.11895492672920227,
        1.0572178363800049,
        1.0532622337341309
      ],
      "min": [
        -0.186761736869812,
        -0.19967280328273773,
        -0.1489945501089096
      ],
      "type": "VEC3"
    },
    {
      "bufferView": 2,
      "byteOffset": 55560,
      "componentType": 5126,
      "count": 410,
      "max": [
        0.9977547526359558,
        0.9980746507644653,
        0.9966273903846741
      ],
      "min": [
        -0.999972939491272,
        -0.9936150312423706,
        -0.9998109340667725
      ],
      "type": "VEC3"
    },
    {
      "bufferView": 1,
      "byteOffset": 16880,
      "componentType": 5126,
      "count": 410,
      "max": [
        1.0,
        0.47238200902938843
      ],
      "min": [
        0.0,
        0.0
      ],
      "type": "VEC2"
    },
    {
      "bufferView": 0,
      "byteOffset": 38760,
      "componentType": 5125,
      "count": 1920,
      "type": "SCALAR"
    },
    {
      "bufferView": 2,
      "byteOffset": 60480,
      "componentType": 5126,
      "count": 386,
      "max": [
        1.0541518926620483,
        0.009994326159358025,
        0.009994423016905785
      ],
      "min": [
        -0.2904801070690155,
        -0.018094398081302643,
        -0.06789330393075943
      ],
      "type": "VEC3"
    },
    {
      "bufferView": 2,
      "byteOffset": 65112,
      "componentType": 5126,
      "count": 386,
      "max": [
        1.0,
        0.999610185623169,
        0.9994511604309082
      ],
      "min": [
        -1.0,
        -0.9997501373291016,
        -0.9993652105331421
      ],
      "type": "VEC3"
    },
    {
      "bufferView": 1,
      "byteOffset": 20160,
      "componentType": 5126,
      "count": 386,
      "max": [
        1.0,
        1.0
      ],
      "min": [
        0.0,
        0.0
      ],
      "type": "VEC2"
    },
    {
      "bufferView": 0,
      "byteOffset": 46440,
      "componentType": 5125,
      "count": 1848,
      "type": "SCALAR"
    },
    {
      "bufferView": 2,
      "byteOffset": 69744,
      "componentType": 5126,
      "count": 386,
      "max": [
        0.9509551525115967,
        0.009999914094805717,
        0.17102187871932983
      ],
      "min": [
        -0.2877902388572693,
        -0.32642704248428345,
        -0.027051180601119995
      ],
      "type": "VEC3"
    },
    {
      "bufferView": 2,
      "byteOffset": 74376,
      "componentType": 5126,
      "count": 386,
      "max": [
        0.9977152943611145,
        0.9999724626541138,
        0.999861478805542
      ],
      "min": [
        -0.923950731754303,
        -0.999925971031189,
        -0.9998588562011719
      ],
      "type": "VEC3"
    },
    {
      "bufferView": 1,
      "byteOffset": 23248,
      "componentType": 5126,
      "count": 386,
      "max": [
        1.0,
        1.0
      ],
      "min": [
        0.0,
        0.0
      ],
      "type": "VEC2"
    },
    {
      "bufferView": 0,
      "byteOffset": 53832,
      "componentType": 5125,
      "count": 1848,
      "type": "SCALAR"
    },
    {
      "bufferView": 2,
      "byteOffset": 79008,
      "componentType": 5126,
      "count": 386,
      "max": [
        0.9519933462142944,
        0.2516373097896576,
        0.010000080801546574
      ],
      "min": [
        -0.2653772830963135,
        -0.015404541045427322,
        -0.21206368505954742
      ],
      "type": "VEC3"
    },
    {
      "bufferView": 2,
      "byteOffset": 83640,
      "componentType": 5126,
      "count": 386,
      "max": [
        1.0,
        0.999990701675415,
        0.9998109340667725
      ],
      "min": [
        -0.9758920073509216,
        -0.9999827146530151,
        -0.9998141527175903
      ],
      "type": "VEC3"
    },
    {
      "bufferView": 1,
      "byteOffset": 26336,
      "componentType": 5126,
      "count": 386,
      "max": [
        1.0,
        1.0
      ],
      "min": [
        0.0,
        0.0
      ],
      "type": "VEC2"
    },
    {
      "bufferView": 0,
      "byteOffset": 61224,
      "componentType": 5125,
      "count": 1848,
      "type": "SCALAR"
    }
  ],
  "asset": {
    "extras": {
      "author": "Felix Yadomi (https://sketchfab.com/felixyadomi)",
      "license": "CC-BY-4.0 (http://creativecommons.org/licenses/by/4.0/)",
      "source": "https://sketchfab.com/3d-models/cute-mouse-6f782c74ea4d4ae09499da4be2e6a2e8",
      "title": "Cute Mouse"
    },
    "generator": "Sketchfab-12.67.0",
    "version": "2.0"
  },
  "bufferViews": [
    {
      "buffer": 0,
      "byteLength": 68616,
      "name": "floatBufferViews",
      "target": 34963
    },
    {
      "buffer": 0,
      "byteLength": 29424,
      "byteOffset": 68616,
      "byteStride": 8,
      "name": "floatBufferViews",
      "target": 34962
    },
    {
      "buffer": 0,
      "byteLength": 88272,
      "byteOffset": 98040,
      "byteStride": 12,
      "name": "floatBufferViews",
      "target": 34962
    }
  ],
  "buffers": [
    {
      "byteLength": 186312,
      "uri": "scene.bin"
    }
  ],
  "materials": [
    {
      "doubleSided": true,
      "name": "material_0",
      "pbrMetallicRoughness": {
        "baseColorFactor": [
          0.0,
          0.0,
          0.0,
          1.0
        ],
        "metallicFactor": 0.0,
        "roughnessFactor": 0.0
      }
    },
    {
      "doubleSided": true,
      "name": "body",
      "pbrMetallicRoughness": {
        "baseColorFactor": [
          0.128333,
          0.128333,
          0.128333,
          1.0
        ],
        "metallicFactor": 0.0,
        "roughnessFactor": 0.5
      }
    },
    {
      "doubleSided": true,
      "name": "nose",
      "pbrMetallicRoughness": {
        "baseColorFactor": [
          0.8,
          0.230614,
          0.723793,
          1.0
        ],
        "metallicFactor": 0.0,
        "roughnessFactor": 0.5306851139
      }
    },
    {
      "doubleSided": true,
      "name": "material",
      "pbrMetallicRoughness": {
        "baseColorFactor": [
          0.8065084558515376,
          0.5608255140955575,
          0.8193024440314856,
          1.0
        ],
        "metallicFactor": 0.0,
        "roughnessFactor": 0.5
      }
    },
    {
      "doubleSided": true,
      "name": "mustache",
      "pbrMetallicRoughness": {
        "baseColorFactor": [
          0.0,
          0.0,
          0.0,
          1.0
        ],
        "metallicFactor": 0.0,
        "roughnessFactor": 0.5
      }
    }
  ],
  "meshes": [
    {
      "name": "Object_0",
      "primitives": [
        {
          "attributes": {
            "NORMAL": 1,
            "POSITION": 0,
            "TEXCOORD_0": 2
          },
          "indices": 3,
          "material": 1,
          "mode": 4
        }
      ]
    },
    {
      "name": "Object_1",
      "primitives": [
        {
          "attributes": {
            "NORMAL": 5,
            "POSITION": 4,
            "TEXCOORD_0": 6
          },
          "indices": 7,
          "material": 2,
          "mode": 4
        }
      ]
    },
    {
      "name": "Object_2",
      "primitives": [
        {
          "attributes": {
            "NORMAL": 9,
            "POSITION": 8,
            "TEXCOORD_0": 10
          },
          "indices": 11,
          "material": 1,
          "mode": 4
        }
      ]
    },
    {
      "name": "Object_3",
      "primitives": [
        {
          "attributes": {
            "NORMAL": 13,
            "POSITION": 12,
            "TEXCOORD_0": 14
          },
          "indices": 15,
          "material": 0,
          "mode": 4
        }
      ]
    },
    {
      "name": "Object_4",
      "primitives": [
        {
          "attributes": {
            "NORMAL": 17,
            "POSITION": 16,
            "TEXCOORD_0": 18
          },
          "indices": 19,
          "material": 1,
          "mode": 4
        }
      ]
    },
    {
      "name": "Object_5",
      "primitives": [
        {
          "attributes": {
            "NORMAL": 21,
            "POSITION": 20,
            "TEXCOORD_0": 22
          },
          "indices": 23,
          "material": 3,
          "mode": 4
        }
      ]
    },
    {
      "name": "Object_6",
      "primitives": [
        {
          "attributes": {
            "NORMAL": 25,
            "POSITION": 24,
            "TEXCOORD_0": 26
          },
          "indices": 27,
          "material": 4,
          "mode": 4
        }
      ]
    },
    {
      "name": "Object_7",
      "primitives": [
        {
          "attributes": {
            "NORMAL": 29,
            "POSITION": 28,
            "TEXCOORD_0": 30
          },
          "indices": 31,
          "material": 4,
          "mode": 4
        }
      ]
    },
    {
      "name": "Object_8",
      "primitives": [
        {
          "attributes": {
            "NORMAL": 33,
            "POSITION": 32,
            "TEXCOORD_0": 34
          },
          "indices": 35,
          "material": 4,
          "mode": 4
        }
      ]
    }
  ],
  "nodes": [
    {
      "children": [
        1
      ],
      "matrix": [
        1.0,
        0.0,
        0.0,
        0.0,
        0.0,
        2.220446049250313e-16,
        -1.0,
        0.0,
        0.0,
        1.0,
        2.220446049250313e-16,
        0.0,
        -0.05946516990661621,
        -0.29942798614501953,
        -6.648636888706861e-17,
        1.0
      ],
      "name": "Sketchfab_model"
    },
    {
      "children": [
        2
      ],
      "name": "root"
    },
    {
      "children": [
        3,
        5,
        7,
        9,
        11,
        13,
        15,
        17,
        19
      ],
      "matrix": [
        1.0,
        0.0,
        0.0,
        0.0,
        0.0,
        2.220446049250313e-16,
        1.0,
        0.0,
        0.0,
        -1.0,
        2.220446049250313e-16,
        0.0,
        0.0,
        0.0,
        0.0,
        1.0
      ],
      "name": "GLTF_SceneRootNode"
    },
    {
      "children": [
        4
      ],
      "name": "Icosphere_2"
    },
    {
      "mesh": 0,
      "name": "Object_4"
    },
    {
      "children": [
        6
      ],
      "matrix": [
        1.0,
        0.0,
        0.0,
        0.0,
        0.0,
        1.0,
        0.0,
        0.0,
        0.0,
        0.0,
        1.0,
        0.0,
        1.014313817024231,
        -0.011570475995540619,
        -0.02900533936917782,
        1.0
      ],
      "name": "Icosphere.001_3"
    },
    {
      "mesh": 1,
      "name": "Object_6"
    },
    {
      "children": [
        8
      ],
      "matrix": [
        1.0,
        0.0,
        0.0,
        0.0,
        0.0,
        1.0,
        0.0,
        0.0,
        0.0,
        0.0,
        1.0,
        0.0,
        -1.4824715852737427,
        -0.6012251973152161,
        -0.08400584757328033,
        1.0
      ],
      "name": "BezierCurve.003_7"
    },
    {
      "mesh": 2,
      "name": "Object_8"
    },
    {
      "children": [
        10
      ],
      "matrix": [
        0.5999110727089789,
        0.6111797120714539,
        -0.5163003625733928,
        0.0,
        -0.175461852322339,
        0.7301162375151731,
        0.6604115520615165,
        0.0,
        0.7805894203874248,
        -0.30559718465480334,
        0.5452435396318622,
        0.0,
        0.6734657287597656,
        0.34955164790153503,
        -0.35100752115249634,
        1.0
      ],
      "name": "Icosphere.003_8"
    },
    {
      "mesh": 3,
      "name": "Object_10"
    },
    {
      "children": [
        12
      ],
      "matrix": [
        0.9656025016956288,
        -0.24963844253051784,
        0.07274927305534105,
        0.0,
        0.2574137267817451,
        0.8782046530232138,
        -0.4031063887768459,
        0.0,
        0.03674210096709639,
        0.40796719895025124,
        0.9122569717997281,
        0.0,
        0.06402843445539474,
        0.7546616792678833,
        -0.6072865724563599,
        1.0
      ],
      "name": "Icosphere.004_9"
    },
    {
      "mesh": 4,
      "name": "Object_12"
    },
    {
      "children": [
        14
      ],
      "matrix": [
        0.9988718386630416,
        -0.03415379329138234,
        -0.0329934588930003,
        0.0,
        0.04742760884628254,
        0.6826586315086669,
        0.729196691398033,
        0.0,
        -0.0023815635701353,
        -0.729938840746623,
        0.6835083151830983,
        0.0,
        0.08222256600856781,
        0.7620004415512085,
        -0.6231318116188049,
        1.0
      ],
      "name": "Icosphere.005_10"
    },
    {
      "mesh": 5,
      "name": "Object_14"
    },
    {
      "children": [
        16
      ],
      "matrix": [
        0.0,
        0.0,
        -0.7160984873771667,
        0.0,
        0.0,
        0.7160984873771667,
        0.0,
        0.0,
        0.7160984873771667,
        0.0,
        0.0,
        0.0,
        1.0338696241378784,
        -0.011570475995540619,
        0.24442675709724426,
        1.0
      ],
      "name": "BezierCurve.004_12"
    },
    {
      "mesh": 6,
      "name": "Object_16"
    },
    {
      "children": [
        18
      ],
      "matrix": [
        -0.04802054506992027,
        0.19408842516734756,
        -0.6876196289309323,
        0.0,
        0.1704921450203296,
        0.6723752764287074,
        0.17787905935677906,
        0.0,
        0.6938469424190367,
        -0.15178345865913162,
        -0.09129803482379867,
        0.0,
        1.0522055625915527,
        -0.08568042516708374,
        0.23355251550674438,
        1.0
      ],
      "name": "BezierCurve.005_13"
    },
    {
      "mesh": 7,
      "name": "Object_18"
    },
    {
      "children": [
        20
      ],
      "matrix": [
        -0.047047939017713335,
        -0.15628437322966926,
        -0.6972508982481535,
        0.0,
        0.509837115568477,
        0.4822433946104249,
        -0.1424937457129106,
        0.0,
        0.5006492295163862,
        -0.5057801407021625,
        0.07958543761151221,
        0.0,
        1.051834225654602,
        0.04810451716184616,
        0.23723003268241882,
        1.0
      ],
      "name": "BezierCurve.006_14"
    },
    {
      "mesh": 8,
      "name": "Object_20"
    }
  ],
  "scene": 0,
  "scenes": [
    {
      "name": "Sketchfab_Scene",
      "nodes": [
        0
      ]
    }
  ]
}
